HIERARCHY
ROOT Hips
{
  OFFSET -50.2513 65.4712 -91.7859
  CHANNELS 6 Xposition Yposition Zposition Zrotation Xrotation Yrotation
  JOINT RightUpLeg
  {
    OFFSET -8.9458 -8.66707 0.101652
    CHANNELS 3 Zrotation Xrotation Yrotation
    JOINT RightLeg
    {
      OFFSET 0 -44.4227 1.3727
      CHANNELS 3 Zrotation Xrotation Yrotation
      JOINT RightFoot
      {
        OFFSET 0.253549 -42.0924 -1.46059
        CHANNELS 3 Zrotation Xrotation Yrotation
        JOINT RightToes
        {
          OFFSET 0.04 -4.41509 8.4991
          CHANNELS 3 Zrotation Xrotation Yrotation
          End Site
          {
            OFFSET -0.08 -0.137448 9.77979
          }
        }
      }
    }
  }
  JOINT Spine
  {
    OFFSET 0 11.8905 0
    CHANNELS 3 Zrotation Xrotation Yrotation
    JOINT Spine1
    {
      OFFSET 0 25.6574 0.127663
      CHANNELS 3 Zrotation Xrotation Yrotation
      JOINT HEad
      {
        OFFSET 0 8.73416 0.011341
        CHANNELS 3 Zrotation Xrotation Yrotation
        End Site
        {
          OFFSET -0.29 12.7742 2.51395
        }
      }
      JOINT LeftShoulder1
      {
        OFFSET 8.99 -0.362252 -0.22
        CHANNELS 3 Zrotation Xrotation Yrotation
        JOINT LeftArm
        {
          OFFSET 10.2827 -0.00338 0.322123
          CHANNELS 3 Zrotation Xrotation Yrotation
          JOINT LeftForeArm
          {
            OFFSET 32.7669 0.099144 -1.42434
            CHANNELS 3 Zrotation Xrotation Yrotation
            JOINT LeftHand
            {
              OFFSET 27.5643 0.085362 1.02216
              CHANNELS 3 Zrotation Xrotation Yrotation
              End Site
              {
                OFFSET 16.7443 -0.6 1.50291
              }
            }
          }
        }
      }
      JOINT RightShoulder
      {
        OFFSET -8.99 -0.362252 -0.22
        CHANNELS 3 Zrotation Xrotation Yrotation
        JOINT RightArm
        {
          OFFSET -10.2827 -0.00338 0.322123
          CHANNELS 3 Zrotation Xrotation Yrotation
          JOINT RightForeArm
          {
            OFFSET -32.8971 0.099144 -1.42434
            CHANNELS 3 Zrotation Xrotation Yrotation
            JOINT RightHand
            {
              OFFSET -27.4921 0.085362 1.02216
              CHANNELS 3 Zrotation Xrotation Yrotation
              End Site
              {
                OFFSET -16.6312 -0.6 1.50291
              }
            }
          }
        }
      }
    }
  }
  JOINT LeftUpLeg
  {
    OFFSET 8.9458 -8.66707 0.101652
    CHANNELS 3 Zrotation Xrotation Yrotation
    JOINT LeftLeg
    {
      OFFSET 0 -44.4227 1.3727
      CHANNELS 3 Zrotation Xrotation Yrotation
      JOINT LeftFoot
      {
        OFFSET -0.253549 -42.0924 -1.46059
        CHANNELS 3 Zrotation Xrotation Yrotation
        JOINT LeftToes
        {
          OFFSET -0.04 -4.41509 8.4991
          CHANNELS 3 Zrotation Xrotation Yrotation
          End Site
          {
            OFFSET 0.08 -0.047448 9.77979
          }
        }
      }
    }
  }
}
MOTION
Frames:	21
Frame Time:	0.0166667
23.9354 69.0448 -116.671 6.81728 2.18568 1.517 -15.0342 -34.3265 -14.8811 -147.649 70.3452 123.822 14.6459 4.31728 0.305051 0.0462048 0.000533403 0.662642 -26.5294 23.701 16.8036 0.0148621 0.00235055 -0.0201693 5.93613 0.158106 -5.53582 6.36111e-015 -3.18055e-015 -6.36111e-015 -96.2211 5.49327 -97.4723 -16.9303 57.7499 -85.2499 34.9337 13.6157 -20.9299 31.866 13.6762 1.53069 67.5571 -23.546 79.6848 11.0046 52.0797 119.066 -39.9052 19.7175 -3.18274 39.1869 -59.1452 40.492 4.94451 87.9029 0.613199 3.5717 0.819238 -0.0126391 -1.34738e-009 1.55988e-007 -4.83543e-009 
22.4745 67.3588 -117.054 5.76675 -0.408109 5.88396 -17.5764 -36.0332 -19.4338 -139.665 67.2561 111.873 9.26166 3.74323 0.729454 0.0462048 0.000533403 0.662642 -24.7484 27.6793 15.3866 0.0125274 0.00843049 -0.018375 6.41524 -0.39109 -6.94262 -6.36111e-015 0 -0 -95.7116 6.2797 -97.5805 -16.8955 58.0349 -85.1986 34.8727 13.8515 -20.5291 32.4796 13.3496 0.303145 66.7243 -24.1242 78.7017 10.8342 52.4156 119.905 -40.6077 19.5885 -3.04045 36.3031 -61.002 35.0468 76.114 88.4857 -72.5011 3.3823 0.987573 0.0317482 -1.34738e-009 1.55988e-007 -4.83543e-009 
21.0738 65.8087 -117.382 5.03172 -2.73459 9.64545 -21.0088 -37.4098 -22.6326 -130.608 64.257 100.326 8.27259 3.48903 0.564073 0.0462048 0.000533403 0.662642 -22.59 30.8684 13.7204 0.0093479 0.0138904 -0.0162267 6.52153 -0.70249 -8.07285 -3.18055e-015 0 3.18055e-015 -95.6466 6.49243 -97.5683 -17.1027 58.3401 -84.8666 34.8127 14.1694 -20.3202 32.3513 13.4993 -0.625229 66.8347 -24.8075 78.2489 11.209 53.1798 119.892 -41.1945 19.4301 -3.16474 33.7138 -62.7328 30.4082 113.498 86.9419 -111.815 3.22123 1.20113 0.0917007 -1.34738e-009 1.55988e-007 -4.83543e-009 
19.6227 64.16 -117.7 4.53983 -4.7994 12.8851 -24.3287 -38.4853 -24.56 -120.159 61.3716 89.308 3.62174 2.977 0.818443 0.0462048 0.000533403 0.662642 -20.2015 34.5592 11.8185 0.0230789 0.11355 -0.0138877 6.10967 -2.13273 -8.74481 -1.76556e-031 3.18055e-015 3.18055e-015 -96.4043 2.95854 -100.003 -22.6333 58.3478 -82.0266 34.9681 14.4701 -20.3337 31.3225 13.1229 -0.394165 67.6317 -25.763 78.1995 12.0633 54.4058 119.156 -41.7279 19.0202 -3.35479 31.5862 -64.438 26.6851 123.336 84.9253 -123.594 3.05241 1.42874 0.180758 -1.34738e-009 1.55988e-007 -4.83543e-009 
18.1954 62.4604 -118.106 4.25011 -6.57925 15.6009 -26.9006 -39.212 -24.4117 -117.362 60.8628 86.859 -1.17111 2.90989 0.643295 0.0462048 0.000533403 0.662642 -17.5416 38.5686 9.71493 0.0214357 0.11118 -0.0117261 5.2717 -4.3276 -9.0948 3.18055e-015 0 3.18055e-015 -97.5378 0.709658 -102.627 -19.8597 60.4231 -81.426 36.9253 9.45113 -21.7598 29.8056 12.2529 0.427381 68.6615 -26.7091 78.3424 13.3129 55.9019 117.87 -42.2761 18.8718 -3.15841 30.155 -66.2397 23.9445 127.871 82.8211 -130.02 2.81311 1.6617 0.251642 -1.34739e-009 1.55988e-007 -4.83543e-009 
16.8687 60.7371 -118.671 4.13013 -8.06262 17.8153 -28.0323 -39.6757 -22.1188 -117.294 62.5485 88.2393 -7.27573 3.07016 0.551127 0.0462048 0.000533403 0.662642 -14.6949 41.5385 7.4728 -0.00100077 0.00818029 -0.0101097 4.32287 -5.93102 -9.29728 -3.18055e-015 3.18055e-015 -0 -98.7805 -0.977696 -104.319 -18.4457 61.7627 -81.2392 38.1331 6.92928 -22.4057 28.2517 11.9863 1.15096 69.7785 -27.6746 78.5817 14.9348 57.49 116.099 -42.7271 18.5996 -2.99539 29.0898 -68.1508 21.8673 130.755 80.9311 -134.576 2.65051 1.85569 0.30744 -1.34738e-009 1.55988e-007 -4.83543e-009 
15.4374 58.8551 -119.313 4.16628 -9.25807 19.5943 -27.8435 -40.023 -17.8765 -118.911 65.2542 92.7537 -13.1918 3.48869 0.46562 0.0462048 0.000533403 0.662642 -11.7887 43.6064 5.20816 0.000515956 0.00732018 -0.00893796 3.22055 -7.22085 -9.37096 3.18055e-015 6.36111e-015 -0 -100.938 -5.76064 -106.326 -22.771 62.3745 -79.4831 38.923 6.05025 -22.559 26.6551 12.0567 2.03125 70.718 -28.7367 78.7505 16.7167 59.0228 114.059 -42.9379 18.362 -2.64629 28.4017 -70.1166 20.4212 132.588 79.2962 -137.897 2.47748 2.02019 0.352604 -1.34738e-009 1.55988e-007 -4.83543e-009 
14.0799 57.1614 -120.013 4.32071 -10.1849 20.9958 -27.106 -40.4381 -11.9311 -122.725 68.3078 100.936 -13.6802 3.84944 0.222687 0.0462048 0.000533403 0.662642 -8.95211 44.9122 3.02356 0.000505766 0.0111422 -0.00786813 2.02816 -8.17685 -9.32295 -4.77083e-015 0 -0 -102.881 -8.59045 -107.332 -24.9955 63.0318 -78.5483 39.6905 5.64931 -22.7348 24.9984 12.3798 2.84495 71.4862 -29.684 78.8332 18.5449 60.3574 111.933 -43.1353 18.3892 -2.29604 27.9311 -71.927 19.4521 132.916 77.9936 -139.54 2.23282 2.17808 0.40098 -1.34738e-009 1.55988e-007 -4.83544e-009 
12.6828 55.596 -120.659 4.56618 -10.8763 22.079 -26.1242 -40.9445 -4.73329 -128.748 71.4359 112.221 -10.2929 4.10548 -0.0534985 0.0462048 0.000533403 0.662642 -6.30179 45.5927 1.0169 -0.000119149 0.0153902 -0.00690537 0.784067 -8.85908 -9.1519 -4.77083e-015 0 6.36111e-015 -104.671 -10.3624 -107.594 -25.9119 63.6779 -78.1713 40.3594 5.81583 -22.815 23.2781 12.8844 3.60476 72.0889 -30.4953 78.8257 20.2637 61.4351 109.894 -43.1156 18.45 -2.02404 27.922 -73.5204 19.107 131.971 76.9127 -139.832 1.78121 2.3231 0.453434 -1.34738e-009 1.55988e-007 -4.83543e-009 
10.7675 53.8803 -121.012 4.92074 -11.3804 22.9038 -25.9005 -41.8633 3.19949 -144.326 73.9915 132.434 -0.128435 4.29994 -0.281337 0.0462048 0.000533403 0.662642 -3.97501 45.7817 -0.70715 -0.00112169 0.0183109 -0.00605481 -0.45246 -10.2199 -7.57723 -0 -6.36111e-015 -0 -106.502 -11.8215 -107.267 -25.9097 64.3373 -78.5053 44.3665 24.3588 -21.6378 21.4252 13.4397 4.45232 72.5165 -31.1792 78.5807 21.5742 62.2574 108.235 -42.802 18.6717 -1.96873 30.6721 -74.1894 20.6056 129.993 76.7459 -139.877 0.828453 2.38509 0.491542 -1.34739e-009 1.55988e-007 -4.83544e-009 
8.56226 52.147 -121.089 5.35547 -11.7391 23.5 -24.7396 -43.4498 10.9535 -164.386 73.9805 155.577 5.3185 5.09813 -0.428338 0.0462048 0.000533403 0.662642 -2.00845 45.5982 -2.10091 -0.00226444 0.0203402 -0.00532158 -1.73343 -12.1224 -4.73331 3.18055e-015 0 -0 -110.633 -16.4354 -107.338 -30.6645 65.9312 -77.53 44.3231 14.3636 -22.6519 19.6263 14.0532 5.19057 72.7125 -31.5554 78.2247 22.3966 62.8716 107 -42.5741 18.937 -2.02661 35.8744 -74.2362 23.6203 127.942 77.2522 -140.425 -0.659465 2.37183 0.498218 -1.34738e-009 1.55988e-007 -4.83543e-009 
6.05917 50.4922 -120.878 5.85539 -11.9896 23.8972 -23.2847 -45.535 18.6011 179.049 71.4677 174.429 12.1133 5.76708 -0.686056 0.0462048 0.000533403 0.662642 -0.442432 45.1429 -3.12083 -0.00331007 0.0216606 -0.00471081 -2.92039 -13.6304 -2.08252 -3.53113e-031 -6.36111e-015 -3.18055e-015 -113.747 -19.3847 -106.814 -32.4662 67.2475 -77.5632 44.9001 20.0731 -22.1732 17.9525 14.692 5.79179 72.6977 -31.5909 77.802 22.7437 63.3068 106.131 -42.218 19.2547 -2.23958 42.1272 -73.6258 26.922 125.426 78.4604 -140.808 -2.58316 2.31708 0.485321 -1.34738e-009 1.55988e-007 -4.83543e-009 
3.05179 48.8547 -120.302 6.45564 -12.1576 24.1406 -22.4892 -47.5275 24.6293 170.011 68.1413 -174.336 18.4112 6.42802 -1.04429 0.0462048 0.000533403 0.662642 0.757657 44.4813 -3.7845 -0.00438052 0.0225441 -0.00422764 -4.49745 -15.3831 1.66467 -1.59028e-015 -3.18055e-015 -0 -119.098 -24.7637 -106.844 -30.1239 67.5798 -80.3697 42.79 9.77495 -24.2036 16.5824 15.2695 5.91133 70.5908 -27.4302 77.7805 20.1739 61.0361 104.984 -41.7342 19.6703 -2.52842 48.3324 -72.3786 29.5799 121.005 80.2402 -139.435 -5.0484 2.23075 0.458906 -1.34738e-009 1.55988e-007 -4.83543e-009 
-0.171202 47.3463 -119.525 7.13672 -12.2694 24.2585 -21.8161 -49.6607 29.0729 165.796 64.6559 -168.314 22.5833 7.09512 -1.47385 0.0462048 0.000533403 0.662642 1.63399 43.6689 -4.11416 -0.00554862 0.0231094 -0.00387719 -5.97175 -16.7059 5.06554 1.59028e-015 0 3.18055e-015 -122.958 -28.3159 -106.183 -28.0445 68.3096 -82.9781 41.9552 10.5539 -24.3839 15.4371 15.906 5.67008 67.1758 -21.1085 78.2839 16.3764 57.0503 103.627 -41.336 20.2292 -3.16046 52.8502 -70.6372 30.0763 104.122 81.4747 -125.14 -9.64015 2.14505 0.376478 -1.34738e-009 1.55988e-007 -4.83543e-009 
-3.50926 45.9092 -118.56 7.89514 -12.3381 24.2805 -21.3302 -51.9198 32.0858 164.42 61.2865 -165.513 25.8772 7.66255 -1.86546 0.0462048 0.000533403 0.662642 2.19555 42.7567 -4.12271 -0.00676576 0.0234755 -0.0036646 -7.35864 -17.6289 8.12515 -5.29669e-031 -3.18055e-015 -9.54166e-015 -125.797 -31.0113 -105.054 -26.5924 68.9845 -85.1706 41.7223 5.89044 -25.4938 14.3814 16.5705 5.51402 64.7755 -17.6801 78.1577 14.1485 54.7386 103.425 -40.828 20.676 -3.86136 55.8016 -68.5849 28.7648 82.0361 82.8895 -105.151 -13.8556 2.05288 0.285402 -1.34738e-009 1.55988e-007 -4.83542e-009 
-7.27811 44.6648 -117.389 8.74835 -12.3645 24.2533 -20.6836 -54.384 33.9351 164.482 57.9566 -164.846 28.4359 8.21818 -2.23731 0.0462048 0.000533403 0.662642 2.49443 41.7734 -3.8732 -0.00800915 0.0237614 -0.00359498 -9.55324 -18.3221 11.9831 -0 0 3.18055e-015 -131.327 -36.4015 -105.177 -31.3429 71.3547 -84.7413 41.9768 7.27033 -25.2986 13.3962 17.187 5.42694 63.0437 -15.7704 77.553 12.852 53.5279 103.658 -40.0461 20.7708 -4.55442 56.9908 -66.0577 25.5524 48.4519 81.387 -72.5259 -19.7971 2.0002 0.170471 -1.34738e-009 1.55988e-007 -4.83543e-009 
-11.0105 43.5706 -116.131 9.66058 -12.3511 24.2057 -19.9373 -56.8873 34.6268 165.264 54.8285 -165.655 29.3123 8.70626 -2.48718 0.0462048 0.000533403 0.662642 2.56483 40.7285 -3.39922 -0.00925606 0.0240859 -0.00367348 -11.571 -18.6835 15.4343 -0 -6.36111e-015 -0 -135.06 -40.1065 -104.699 -34.807 72.7848 -83.7373 42.0902 5.07497 -26.1665 12.5471 17.8386 5.29327 61.7789 -14.6048 76.8086 12.0958 53.0552 103.913 -39.494 20.9903 -5.08866 56.9637 -63.1594 21.2026 25.7232 78.5076 -50.0784 -25.1136 1.91132 0.0421005 -1.34739e-009 1.55988e-007 -4.83543e-009 
-14.6828 42.7055 -114.821 10.6284 -12.29 24.1652 -19.4027 -59.2247 34.1302 166.424 52.1446 -167.546 29.7357 9.0738 -2.62074 0.0462048 0.000533403 0.662642 2.41049 39.626 -2.72586 -0.0104837 0.0245679 -0.00390521 -13.4222 -18.7202 18.503 1.59028e-015 6.36111e-015 -0 -137.398 -42.8852 -103.608 -37.3175 73.507 -82.5827 42.3 6.08066 -26.2333 11.8797 18.5159 5.10841 60.7854 -13.7921 76.0633 11.6763 53.0285 103.996 -38.94 20.9831 -5.42296 56.1979 -59.8492 16.3298 12.0161 74.4154 -36.0155 -30.2304 1.82281 -0.0612026 -1.34738e-009 1.55988e-007 -4.83543e-009 
-18.514 42.2354 -113.359 11.6721 -12.171 24.191 -19.7328 -61.2507 32.0073 166.171 49.5675 -167.334 29.5116 9.32378 -2.6827 0.0462048 0.000533403 0.662642 2.04323 38.4551 -1.86935 -0.0116694 0.0253263 -0.00429532 -16.1339 -18.2742 22.1369 -3.53113e-031 6.36111e-015 3.18055e-015 -138.686 -45.247 -101.662 -36.5744 70.0019 -80.997 38.7091 3.27827 -29.6732 11.4089 19.1426 4.9617 59.7915 -13.2677 75.3241 11.7047 53.0279 103.823 -21.4719 11.6338 -3.4536 55.0994 -56.0264 11.5379 4.43072 69.2801 -27.474 -35.2988 1.68004 -0.175201 -1.34738e-009 1.55988e-007 -4.83543e-009 
-22.3515 42.1427 -111.997 12.765 -11.9969 24.3021 -20.0992 -62.8437 28.7372 166.742 48.0712 -169.487 28.7744 9.52892 -2.75888 0.0462048 0.000533403 0.662642 1.49897 37.2208 -0.859035 -0.0127903 0.0264802 -0.00484894 -18.5372 -17.6015 25.3417 -1.76556e-031 -3.18055e-015 -3.18055e-015 -139.075 -47.2839 -99.0477 -35.7902 68.4408 -80.9919 37.0035 3.17339 -31.1615 11.1664 19.8102 4.67318 58.7636 -12.8685 74.7602 12.0431 52.9934 103.426 -31.055 14.9362 -5.08292 53.5686 -52.0567 7.2694 -1.43902 63.4369 -18.8029 -33.273 1.12219 -0.440375 -1.34738e-009 1.55988e-007 -4.83543e-009 
-25.9939 42.3801 -110.655 13.9035 -11.7606 24.5065 -20.7685 -63.7032 24.4816 167.724 47.5331 -173.034 27.6889 9.45585 -2.69495 0.0462048 0.000533403 0.662642 0.777083 35.9288 0.286314 -0.0137504 0.0285802 -0.00649885 -20.6219 -16.7147 28.1417 -6.36111e-015 0 -3.18055e-015 -138.697 -49.0042 -96.0437 -35.0924 67.8419 -81.706 36.5109 2.57427 -32.1212 11.258 20.5302 4.18931 57.6744 -12.3373 74.338 12.194 53.1403 103.067 -24.9635 14.0067 -4.55757 51.9143 -47.7143 3.94233 -2.93506 57.3493 -14.428 -31.5663 0.538893 -0.611723 -1.34738e-009 1.55988e-007 -4.83543e-009 
